<svg class="svg-ev" xmlns="http://www.w3.org/2000/svg" width="100" height="92" viewBox="0 0 160 145.9">
<style type="text/css">
	.svg-ev path{fill:#ff9001;}
</style>
<path d="M106.9,0.6c0,2,0,4.1,0,6.1c0,4.7,0,9.3,0,14c0,0.2,0,0.4,0,0.7C77.3,38.7,47.7,55.9,18.1,73.2
	c0.4,0.4,85,49.9,88.8,51.9c17.7-10.3,35.4-20.6,53.2-31c0,7,0,13.8,0,20.7c-0.2,0.1-0.4,0.3-0.7,0.4c-9.5,5.6-19,11.1-28.5,16.7
	c-7.8,4.6-15.7,9.1-23.5,13.7c-0.1,0.1-0.3,0.2-0.4,0.3c-0.1,0-0.2,0-0.2,0c-0.2-0.1-0.5-0.3-0.7-0.4c-8.2-4.8-16.4-9.6-24.7-14.4
	c-16.4-9.6-32.8-19.1-49.3-28.7C21.7,96.2,11.2,90.1,0.7,84c-0.2-0.1-0.4-0.2-0.6-0.3c0-7,0-13.9,0-20.9c0.2-0.1,0.4-0.1,0.6-0.2
	c2.2-1.3,4.4-2.5,6.6-3.8c29.5-17.2,59-34.4,88.6-51.7c3.4-2,6.8-4,10.2-5.9c0.2-0.1,0.5-0.2,0.6-0.6C106.6,0.6,106.8,0.6,106.9,0.6
	z"/>
<path d="M124.6,52.5c-17.8,10.4-35.5,20.8-53.3,31.1c-5.9-3.5-11.8-6.9-17.8-10.4c23.7-13.9,47.4-27.7,71.1-41.5
	C124.6,38.7,124.6,45.6,124.6,52.5z"/>
<path d="M142.4,62.9c0,7,0,13.9,0,20.8c-11.8,6.9-23.7,13.8-35.5,20.7c-5.9-3.5-11.8-6.9-17.8-10.4
	C106.9,83.6,124.6,73.3,142.4,62.9z"/>
</svg>